<?xml version="1.0" encoding="UTF-8"?>
<svg xmlns="http://www.w3.org/2000/svg" width="1200" height="848" viewBox="0 0 1200 848">
<rect width="1200" height="848" fill="rgb(255, 255, 255)"/>
<text x="105" y="90" font-family="Arial,Helvetica,sans-serif" font-size="36" font-weight="bold" fill="rgb(26, 26, 26)">O PatchCraft recusa em vez de devolver a imagem errada</text>
<text x="105" y="147" font-family="Arial,Helvetica,sans-serif" font-size="21" fill="rgb(110, 110, 110)">As mesmas três geometrias, agora com o que a biblioteca devolve em cada uma. O reconstruct confere</text>
<text x="105" y="177" font-family="Arial,Helvetica,sans-serif" font-size="21" fill="rgb(110, 110, 110)">a cobertura antes de somar, então a falha chega como erro e não como pixel preto.</text>
<rect x="105.0" y="236.0" width="300.0" height="300.0" fill="rgb(219, 233, 246)"/>
<rect x="105.0" y="236.0" width="300.0" height="300.0" fill="none" stroke="rgb(214, 214, 214)"/>
<text x="105" y="219" font-family="Arial,Helvetica,sans-serif" font-size="27" font-weight="bold" fill="rgb(26, 26, 26)">passo 32</text>
<text x="105" y="572" font-family="Arial,Helvetica,sans-serif" font-size="18" fill="rgb(110, 110, 110)">passo 32, sem sobreposição</text>
<text x="105" y="602" font-family="Arial,Helvetica,sans-serif" font-size="20" font-weight="bold" fill="rgb(28, 108, 76)">volta bit a bit idêntica</text>
<rect x="450.0" y="236.0" width="37.5" height="37.5" fill="rgb(219, 233, 246)"/>
<rect x="487.5" y="236.0" width="225.0" height="37.5" fill="rgb(141, 184, 219)"/>
<rect x="712.5" y="236.0" width="37.5" height="37.5" fill="rgb(219, 233, 246)"/>
<rect x="450.0" y="273.5" width="37.5" height="225.0" fill="rgb(141, 184, 219)"/>
<rect x="487.5" y="273.5" width="225.0" height="225.0" fill="rgb(52, 105, 156)"/>
<rect x="712.5" y="273.5" width="37.5" height="225.0" fill="rgb(141, 184, 219)"/>
<rect x="450.0" y="498.5" width="37.5" height="37.5" fill="rgb(219, 233, 246)"/>
<rect x="487.5" y="498.5" width="225.0" height="37.5" fill="rgb(141, 184, 219)"/>
<rect x="712.5" y="498.5" width="37.5" height="37.5" fill="rgb(219, 233, 246)"/>
<rect x="450.0" y="236.0" width="300.0" height="300.0" fill="none" stroke="rgb(214, 214, 214)"/>
<text x="450" y="219" font-family="Arial,Helvetica,sans-serif" font-size="27" font-weight="bold" fill="rgb(26, 26, 26)">passo 16</text>
<text x="450" y="572" font-family="Arial,Helvetica,sans-serif" font-size="18" fill="rgb(110, 110, 110)">passo 16, contagens de 1, 2 e 4</text>
<text x="450" y="602" font-family="Arial,Helvetica,sans-serif" font-size="20" font-weight="bold" fill="rgb(28, 108, 76)">volta bit a bit idêntica</text>
<rect x="795.0" y="236.0" width="46.9" height="46.9" fill="rgb(219, 233, 246)"/>
<rect x="841.9" y="236.0" width="28.1" height="46.9" fill="rgb(141, 184, 219)"/>
<rect x="870.0" y="236.0" width="18.8" height="46.9" fill="rgb(219, 233, 246)"/>
<rect x="888.8" y="236.0" width="28.1" height="46.9" fill="rgb(141, 184, 219)"/>
<rect x="916.9" y="236.0" width="18.8" height="46.9" fill="rgb(219, 233, 246)"/>
<rect x="935.6" y="236.0" width="28.1" height="46.9" fill="rgb(141, 184, 219)"/>
<rect x="963.8" y="236.0" width="18.8" height="46.9" fill="rgb(219, 233, 246)"/>
<rect x="982.5" y="236.0" width="28.1" height="46.9" fill="rgb(141, 184, 219)"/>
<rect x="1010.6" y="236.0" width="46.9" height="46.9" fill="rgb(219, 233, 246)"/>
<rect x="1057.5" y="236.0" width="37.5" height="46.9" fill="rgb(176, 42, 42)"/>
<rect x="795.0" y="282.9" width="46.9" height="28.1" fill="rgb(141, 184, 219)"/>
<rect x="841.9" y="282.9" width="28.1" height="28.1" fill="rgb(52, 105, 156)"/>
<rect x="870.0" y="282.9" width="18.8" height="28.1" fill="rgb(141, 184, 219)"/>
<rect x="888.8" y="282.9" width="28.1" height="28.1" fill="rgb(52, 105, 156)"/>
<rect x="916.9" y="282.9" width="18.8" height="28.1" fill="rgb(141, 184, 219)"/>
<rect x="935.6" y="282.9" width="28.1" height="28.1" fill="rgb(52, 105, 156)"/>
<rect x="963.8" y="282.9" width="18.8" height="28.1" fill="rgb(141, 184, 219)"/>
<rect x="982.5" y="282.9" width="28.1" height="28.1" fill="rgb(52, 105, 156)"/>
<rect x="1010.6" y="282.9" width="46.9" height="28.1" fill="rgb(141, 184, 219)"/>
<rect x="1057.5" y="282.9" width="37.5" height="28.1" fill="rgb(176, 42, 42)"/>
<rect x="795.0" y="311.0" width="46.9" height="18.8" fill="rgb(219, 233, 246)"/>
<rect x="841.9" y="311.0" width="28.1" height="18.8" fill="rgb(141, 184, 219)"/>
<rect x="870.0" y="311.0" width="18.8" height="18.8" fill="rgb(219, 233, 246)"/>
<rect x="888.8" y="311.0" width="28.1" height="18.8" fill="rgb(141, 184, 219)"/>
<rect x="916.9" y="311.0" width="18.8" height="18.8" fill="rgb(219, 233, 246)"/>
<rect x="935.6" y="311.0" width="28.1" height="18.8" fill="rgb(141, 184, 219)"/>
<rect x="963.8" y="311.0" width="18.8" height="18.8" fill="rgb(219, 233, 246)"/>
<rect x="982.5" y="311.0" width="28.1" height="18.8" fill="rgb(141, 184, 219)"/>
<rect x="1010.6" y="311.0" width="46.9" height="18.8" fill="rgb(219, 233, 246)"/>
<rect x="1057.5" y="311.0" width="37.5" height="18.8" fill="rgb(176, 42, 42)"/>
<rect x="795.0" y="329.8" width="46.9" height="28.1" fill="rgb(141, 184, 219)"/>
<rect x="841.9" y="329.8" width="28.1" height="28.1" fill="rgb(52, 105, 156)"/>
<rect x="870.0" y="329.8" width="18.8" height="28.1" fill="rgb(141, 184, 219)"/>
<rect x="888.8" y="329.8" width="28.1" height="28.1" fill="rgb(52, 105, 156)"/>
<rect x="916.9" y="329.8" width="18.8" height="28.1" fill="rgb(141, 184, 219)"/>
<rect x="935.6" y="329.8" width="28.1" height="28.1" fill="rgb(52, 105, 156)"/>
<rect x="963.8" y="329.8" width="18.8" height="28.1" fill="rgb(141, 184, 219)"/>
<rect x="982.5" y="329.8" width="28.1" height="28.1" fill="rgb(52, 105, 156)"/>
<rect x="1010.6" y="329.8" width="46.9" height="28.1" fill="rgb(141, 184, 219)"/>
<rect x="1057.5" y="329.8" width="37.5" height="28.1" fill="rgb(176, 42, 42)"/>
<rect x="795.0" y="357.9" width="46.9" height="18.8" fill="rgb(219, 233, 246)"/>
<rect x="841.9" y="357.9" width="28.1" height="18.8" fill="rgb(141, 184, 219)"/>
<rect x="870.0" y="357.9" width="18.8" height="18.8" fill="rgb(219, 233, 246)"/>
<rect x="888.8" y="357.9" width="28.1" height="18.8" fill="rgb(141, 184, 219)"/>
<rect x="916.9" y="357.9" width="18.8" height="18.8" fill="rgb(219, 233, 246)"/>
<rect x="935.6" y="357.9" width="28.1" height="18.8" fill="rgb(141, 184, 219)"/>
<rect x="963.8" y="357.9" width="18.8" height="18.8" fill="rgb(219, 233, 246)"/>
<rect x="982.5" y="357.9" width="28.1" height="18.8" fill="rgb(141, 184, 219)"/>
<rect x="1010.6" y="357.9" width="46.9" height="18.8" fill="rgb(219, 233, 246)"/>
<rect x="1057.5" y="357.9" width="37.5" height="18.8" fill="rgb(176, 42, 42)"/>
<rect x="795.0" y="376.6" width="46.9" height="28.1" fill="rgb(141, 184, 219)"/>
<rect x="841.9" y="376.6" width="28.1" height="28.1" fill="rgb(52, 105, 156)"/>
<rect x="870.0" y="376.6" width="18.8" height="28.1" fill="rgb(141, 184, 219)"/>
<rect x="888.8" y="376.6" width="28.1" height="28.1" fill="rgb(52, 105, 156)"/>
<rect x="916.9" y="376.6" width="18.8" height="28.1" fill="rgb(141, 184, 219)"/>
<rect x="935.6" y="376.6" width="28.1" height="28.1" fill="rgb(52, 105, 156)"/>
<rect x="963.8" y="376.6" width="18.8" height="28.1" fill="rgb(141, 184, 219)"/>
<rect x="982.5" y="376.6" width="28.1" height="28.1" fill="rgb(52, 105, 156)"/>
<rect x="1010.6" y="376.6" width="46.9" height="28.1" fill="rgb(141, 184, 219)"/>
<rect x="1057.5" y="376.6" width="37.5" height="28.1" fill="rgb(176, 42, 42)"/>
<rect x="795.0" y="404.8" width="46.9" height="18.8" fill="rgb(219, 233, 246)"/>
<rect x="841.9" y="404.8" width="28.1" height="18.8" fill="rgb(141, 184, 219)"/>
<rect x="870.0" y="404.8" width="18.8" height="18.8" fill="rgb(219, 233, 246)"/>
<rect x="888.8" y="404.8" width="28.1" height="18.8" fill="rgb(141, 184, 219)"/>
<rect x="916.9" y="404.8" width="18.8" height="18.8" fill="rgb(219, 233, 246)"/>
<rect x="935.6" y="404.8" width="28.1" height="18.8" fill="rgb(141, 184, 219)"/>
<rect x="963.8" y="404.8" width="18.8" height="18.8" fill="rgb(219, 233, 246)"/>
<rect x="982.5" y="404.8" width="28.1" height="18.8" fill="rgb(141, 184, 219)"/>
<rect x="1010.6" y="404.8" width="46.9" height="18.8" fill="rgb(219, 233, 246)"/>
<rect x="1057.5" y="404.8" width="37.5" height="18.8" fill="rgb(176, 42, 42)"/>
<rect x="795.0" y="423.5" width="46.9" height="28.1" fill="rgb(141, 184, 219)"/>
<rect x="841.9" y="423.5" width="28.1" height="28.1" fill="rgb(52, 105, 156)"/>
<rect x="870.0" y="423.5" width="18.8" height="28.1" fill="rgb(141, 184, 219)"/>
<rect x="888.8" y="423.5" width="28.1" height="28.1" fill="rgb(52, 105, 156)"/>
<rect x="916.9" y="423.5" width="18.8" height="28.1" fill="rgb(141, 184, 219)"/>
<rect x="935.6" y="423.5" width="28.1" height="28.1" fill="rgb(52, 105, 156)"/>
<rect x="963.8" y="423.5" width="18.8" height="28.1" fill="rgb(141, 184, 219)"/>
<rect x="982.5" y="423.5" width="28.1" height="28.1" fill="rgb(52, 105, 156)"/>
<rect x="1010.6" y="423.5" width="46.9" height="28.1" fill="rgb(141, 184, 219)"/>
<rect x="1057.5" y="423.5" width="37.5" height="28.1" fill="rgb(176, 42, 42)"/>
<rect x="795.0" y="451.6" width="46.9" height="46.9" fill="rgb(219, 233, 246)"/>
<rect x="841.9" y="451.6" width="28.1" height="46.9" fill="rgb(141, 184, 219)"/>
<rect x="870.0" y="451.6" width="18.8" height="46.9" fill="rgb(219, 233, 246)"/>
<rect x="888.8" y="451.6" width="28.1" height="46.9" fill="rgb(141, 184, 219)"/>
<rect x="916.9" y="451.6" width="18.8" height="46.9" fill="rgb(219, 233, 246)"/>
<rect x="935.6" y="451.6" width="28.1" height="46.9" fill="rgb(141, 184, 219)"/>
<rect x="963.8" y="451.6" width="18.8" height="46.9" fill="rgb(219, 233, 246)"/>
<rect x="982.5" y="451.6" width="28.1" height="46.9" fill="rgb(141, 184, 219)"/>
<rect x="1010.6" y="451.6" width="46.9" height="46.9" fill="rgb(219, 233, 246)"/>
<rect x="1057.5" y="451.6" width="37.5" height="46.9" fill="rgb(176, 42, 42)"/>
<rect x="795.0" y="498.5" width="300.0" height="37.5" fill="rgb(176, 42, 42)"/>
<rect x="795.0" y="236.0" width="300.0" height="300.0" fill="none" stroke="rgb(214, 214, 214)"/>
<text x="795" y="219" font-family="Arial,Helvetica,sans-serif" font-size="27" font-weight="bold" fill="rgb(26, 26, 26)">passo 20</text>
<text x="795" y="572" font-family="Arial,Helvetica,sans-serif" font-size="18" fill="rgb(110, 110, 110)">passo 20, cobre 112 de 128</text>
<text x="795" y="602" font-family="Arial,Helvetica,sans-serif" font-size="20" font-weight="bold" fill="rgb(176, 42, 42)">ValueError, não devolve imagem</text>
<rect x="105.0" y="640.0" width="990.0" height="158.0" fill="rgb(246, 247, 249)"/>
<rect x="105.0" y="640.0" width="5.0" height="158.0" fill="rgb(176, 42, 42)"/>
<text x="129" y="675" font-family="Consolas,Menlo,monospace" font-size="17" fill="rgb(176, 42, 42)">ValueError: patch grid leaves pixels uncovered (partial coverage forbidden):</text>
<text x="129" y="699" font-family="Consolas,Menlo,monospace" font-size="17" fill="rgb(26, 26, 26)">stride=(20, 20) covers (112, 112) of (128, 128).</text>
<text x="129" y="723" font-family="Consolas,Menlo,monospace" font-size="17" fill="rgb(26, 26, 26)">Choose a geometry with exact coverage (see patchcraft.tilings).</text>
<text x="129" y="755" font-family="Arial,Helvetica,sans-serif" font-size="17" font-weight="bold" fill="rgb(110, 110, 110)">E a resposta vem junto.</text>
<text x="327" y="755" font-family="Arial,Helvetica,sans-serif" font-size="17" fill="rgb(110, 110, 110)">tilings((3, 128, 128)) lista 517 geometrias legais. Com patch 32, os passos que cobrem exato:</text>
<text x="129" y="779" font-family="Consolas,Menlo,monospace" font-size="17" font-weight="bold" fill="rgb(26, 26, 26)">1, 2, 3, 4, 6, 8, 12, 16, 24 e 32.</text>
<text x="105" y="831" font-family="Arial,Helvetica,sans-serif" font-size="17" fill="rgb(110, 110, 110)">Reproduz com: python tools/make_outreach_figure.py</text>
</svg>